<?xml version="1.0" encoding="UTF-8"?>
<svg version="1.1" xmlns="http://www.w3.org/2000/svg" width="588" height="175">
<path d="M0 0 C0.74985672 -0.0033284 1.49971344 -0.0066568 2.27229309 -0.01008606 C3.8583617 -0.015141 5.44444092 -0.01749483 7.03051758 -0.01733398 C9.43133607 -0.01950798 11.83168535 -0.03764394 14.23242188 -0.05664062 C34.4860127 -0.13558655 48.86263502 6.77479594 63.33203125 20.85546875 C71.79868768 29.35502328 77.23787003 38.87327738 81.26953125 50.16796875 C81.63820312 51.16828125 82.006875 52.16859375 82.38671875 53.19921875 C83.92982605 58.79632982 83.59776184 64.66057371 83.58203125 70.41796875 C83.59814453 71.58199219 83.61425781 72.74601562 83.63085938 73.9453125 C83.63682068 84.5921974 81.49349115 93.70679085 76.64453125 103.16796875 C76.29825684 103.84802979 75.95198242 104.52809082 75.59521484 105.22875977 C70.25439423 115.35003302 62.5349654 124.39450155 53.26953125 131.16796875 C52.27953125 131.16796875 51.28953125 131.16796875 50.26953125 131.16796875 C50.26953125 131.82796875 50.26953125 132.48796875 50.26953125 133.16796875 C48.4611822 134.11345074 46.64758342 135.04889329 44.83203125 135.98046875 C43.82269531 136.50253906 42.81335938 137.02460938 41.7734375 137.5625 C34.5382367 140.87762545 28.18202899 142.63174642 20.2109375 142.6015625 C18.96714577 142.60942528 18.96714577 142.60942528 17.69822693 142.6174469 C15.95792756 142.62382282 14.21758484 142.62258812 12.47729492 142.61401367 C9.84149118 142.60549931 7.20785645 142.63433254 4.57226562 142.66601562 C-4.28512912 142.70363755 -11.79054907 142.54933109 -19.73046875 138.16796875 C-20.91898438 137.6059375 -22.1075 137.04390625 -23.33203125 136.46484375 C-24.82863281 135.69914062 -24.82863281 135.69914062 -26.35546875 134.91796875 C-27.37898438 134.3971875 -28.4025 133.87640625 -29.45703125 133.33984375 C-30.20726562 132.953125 -30.9575 132.56640625 -31.73046875 132.16796875 C-31.73046875 131.50796875 -31.73046875 130.84796875 -31.73046875 130.16796875 C-32.45492187 129.93207031 -33.179375 129.69617188 -33.92578125 129.453125 C-44.50261953 124.60663504 -52.63479291 111.95252885 -57.54296875 101.73046875 C-57.83324951 101.13403564 -58.12353027 100.53760254 -58.42260742 99.9230957 C-65.06238053 85.36810179 -65.30165709 64.37679514 -60.88671875 49.12890625 C-55.374264 35.01255254 -46.85230855 22.43761095 -34.73046875 13.16796875 C-34.07046875 13.16796875 -33.41046875 13.16796875 -32.73046875 13.16796875 C-32.73046875 12.50796875 -32.73046875 11.84796875 -32.73046875 11.16796875 C-22.34049224 5.00219986 -12.20107345 0.01894457 0 0 Z M12.26953125 44.16796875 C14.77606592 48.0322097 17.42091511 51.76549807 20.14453125 55.48046875 C23.66127079 60.28799658 27.01712941 65.17848866 30.26953125 70.16796875 C29.80804688 70.79960938 29.3465625 71.43125 28.87109375 72.08203125 C27.08510756 74.53158543 25.30301264 76.98390752 23.52392578 79.43847656 C22.65877346 80.63130238 21.79249349 81.82331086 20.92529297 83.01464844 C19.55696003 84.89628799 18.19401375 86.78172912 16.83203125 88.66796875 C16.3952002 89.26689941 15.95836914 89.86583008 15.50830078 90.48291016 C13.67012471 93.03774958 12.2716148 95.16171809 11.26953125 98.16796875 C14.40898082 98.66367131 16.24828085 98.91928499 19.26953125 98.16796875 C22.20991618 95.59592578 24.16080481 92.43353432 26.26953125 89.16796875 C27.00042969 88.08902344 27.73132813 87.01007813 28.484375 85.8984375 C30.43805169 83.00397449 32.36345832 80.09391446 34.26953125 77.16796875 C36.05859375 77.35546875 36.05859375 77.35546875 38.26953125 78.16796875 C39.98046875 80.35546875 39.98046875 80.35546875 41.64453125 83.16796875 C42.25425781 84.15410156 42.86398438 85.14023438 43.4921875 86.15625 C44.60675262 88.04488673 45.68369458 89.95679754 46.703125 91.8984375 C48.07437286 94.3418225 49.20690222 96.26612372 51.26953125 98.16796875 C54.72663474 98.90617731 57.7950527 98.72415998 61.26953125 98.16796875 C58.15464615 93.44429684 55.00229878 88.7494221 51.76953125 84.10546875 C50.90328125 82.86023438 50.90328125 82.86023438 50.01953125 81.58984375 C47.8864565 78.63782066 45.59728711 75.82892653 43.23828125 73.0546875 C41.86956213 70.38899664 42.46124582 69.0186369 43.26953125 66.16796875 C44.65234375 63.90380859 44.65234375 63.90380859 46.39453125 61.62890625 C47.0184375 60.80132812 47.64234375 59.97375 48.28515625 59.12109375 C48.94 58.2703125 49.59484375 57.41953125 50.26953125 56.54296875 C51.56463164 54.84506155 52.85645465 53.14464803 54.14453125 51.44140625 C55.00691406 50.31871338 55.00691406 50.31871338 55.88671875 49.17333984 C57.44033915 47.11922912 57.44033915 47.11922912 58.26953125 44.16796875 C55.20283406 43.74497603 53.22898408 43.49121547 50.26953125 44.16796875 C47.69087884 46.44215377 46.06406126 49.25766879 44.26953125 52.16796875 C43.05361093 54.01011413 41.82432838 55.84350728 40.58203125 57.66796875 C39.74091797 58.951875 39.74091797 58.951875 38.8828125 60.26171875 C38.35042969 60.89078125 37.81804687 61.51984375 37.26953125 62.16796875 C36.27953125 62.16796875 35.28953125 62.16796875 34.26953125 62.16796875 C32.44378201 59.76224082 30.81301417 57.40119713 29.20703125 54.85546875 C28.76037109 54.16517578 28.31371094 53.47488281 27.85351562 52.76367188 C27.01990592 51.47400664 26.19058822 50.18155001 25.36694336 48.88549805 C24.35407749 47.30028972 23.31301399 45.73319285 22.26953125 44.16796875 C19.83259814 43.80380828 19.83259814 43.80380828 17.14453125 43.98046875 C16.23445313 44.00753906 15.324375 44.03460938 14.38671875 44.0625 C13.68804687 44.09730469 12.989375 44.13210937 12.26953125 44.16796875 Z M-37.3203125 53.6796875 C-38.73046875 55.16796875 -38.73046875 55.16796875 -40.73046875 56.16796875 C-42.53835956 67.01531362 -43.6184348 79.18250041 -37.6640625 88.91015625 C-33.94232674 93.84790468 -28.78323857 96.97983245 -22.73046875 98.16796875 C-13.61900793 99.04324294 -7.35754067 97.21986725 0.20703125 92.23046875 C2.4917667 89.9457333 3.46904465 88.2898665 4.26953125 85.16796875 C3.93953125 84.17796875 3.60953125 83.18796875 3.26953125 82.16796875 C0.93993655 81.66555553 0.93993655 81.66555553 -1.73046875 82.16796875 C-3.12347057 84.12687756 -4.45292321 86.13188055 -5.73046875 88.16796875 C-9.69826602 91.77505718 -13.8874134 91.61750018 -19.01171875 91.4453125 C-24.39081347 90.89658301 -28.10900394 89.32415151 -31.60546875 85.04296875 C-33.73046875 81.16796875 -33.73046875 81.16796875 -34.73046875 72.16796875 C-14.93046875 72.66296875 -14.93046875 72.66296875 5.26953125 73.16796875 C5.31379624 61.04585169 5.31379624 61.04585169 -0.49609375 51.0546875 C-6.16375637 45.66594529 -11.09574983 44.51413246 -18.66796875 43.79296875 C-26.52199592 44.05476966 -32.19682254 48.02325769 -37.3203125 53.6796875 Z " fill="#3A3A3A" transform="translate(152.73046875,14.83203125)"/>
<path d="M0 0 C8.59026061 3.34627145 16.56239857 8.44599948 22.92578125 15.1640625 C26.31292936 13.65347231 28.89754416 11.66007141 31.73828125 9.2890625 C40.34699716 2.31107251 47.80349615 -1.37177483 59.08203125 -1.1484375 C64.40874896 -0.56308391 66.89739273 1.9071432 70.17578125 5.9140625 C76.3004099 17.28837286 74.82208471 31.9582122 71.92578125 44.1640625 C72.66441406 44.29425781 73.40304687 44.42445312 74.1640625 44.55859375 C85.96930088 47.14672946 96.86187561 54.48116313 103.92578125 64.1640625 C105.42167504 68.65174387 105.88762289 72.79990969 104.08984375 77.21875 C97.71395802 88.21608311 86.57054537 93.99543265 74.92578125 98.1640625 C73.93578125 98.1640625 72.94578125 98.1640625 71.92578125 98.1640625 C72.06653076 98.70353516 72.20728027 99.24300781 72.35229492 99.79882812 C73.74042932 105.49085212 74.26213299 110.81561657 74.23828125 116.6640625 C74.25439453 117.45425781 74.27050781 118.24445313 74.28710938 119.05859375 C74.29431259 127.86092638 72.105389 134.82996455 65.92578125 141.1640625 C61.00486308 144.44467461 55.67544123 143.67777782 49.92578125 143.1640625 C39.77347815 140.83595816 31.84956883 133.53723456 23.92578125 127.1640625 C23.31992187 127.67195312 22.7140625 128.17984375 22.08984375 128.703125 C11.51075205 137.39425572 2.16045801 143.87069918 -11.94140625 143.59765625 C-16.88090277 142.91401022 -19.11478616 141.02808917 -22.07421875 137.1640625 C-25.89789647 130.70096024 -26.62790148 125.00319252 -26.38671875 117.6015625 C-26.37705078 116.70759766 -26.36738281 115.81363281 -26.35742188 114.89257812 C-26.26806272 109.58153592 -25.82866916 104.42068039 -25.07421875 99.1640625 C-25.90824219 98.87273437 -26.74226563 98.58140625 -27.6015625 98.28125 C-34.80378462 95.65776016 -40.94488815 92.76106045 -47.07421875 88.1640625 C-47.98171875 87.5453125 -48.88921875 86.9265625 -49.82421875 86.2890625 C-54.38447587 81.982153 -57.34471689 77.61066233 -57.76171875 71.2265625 C-57.41065086 65.35742746 -55.03425035 61.40864726 -51.07421875 57.1640625 C-43.73287568 50.79644033 -33.92974412 44.96315915 -24.07421875 44.1640625 C-24.39777344 42.88660156 -24.72132813 41.60914063 -25.0546875 40.29296875 C-26.18365054 35.19117381 -26.40665187 30.31208032 -26.38671875 25.1015625 C-26.40283203 24.25529297 -26.41894531 23.40902344 -26.43554688 22.53710938 C-26.44117604 15.23608053 -25.12852946 8.78831327 -20.01171875 3.2265625 C-19.50511719 2.66066406 -18.99851562 2.09476563 -18.4765625 1.51171875 C-13.88023191 -2.90536775 -5.63717956 -1.53285442 0 0 Z M-16.07421875 11.1640625 C-20.32717478 20.68258313 -18.2810288 32.33193559 -16.07421875 42.1640625 C-12.96939169 41.68911198 -9.86548774 41.20837502 -6.76171875 40.7265625 C-5.88064453 40.59185547 -4.99957031 40.45714844 -4.09179688 40.31835938 C-3.24423828 40.18623047 -2.39667969 40.05410156 -1.5234375 39.91796875 C-0.74315186 39.79752197 0.03713379 39.6770752 0.84106445 39.55297852 C6.11352025 38.56937129 7.94671336 35.89761418 10.98828125 31.7890625 C11.43494141 31.19867188 11.88160156 30.60828125 12.34179688 30 C14.27745195 27.4307 16.14109303 24.84109483 17.92578125 22.1640625 C10.44312862 14.88464241 1.78327748 7.44522512 -9.1328125 6.9375 C-12.51028885 7.33165217 -13.94619605 8.58464105 -16.07421875 11.1640625 Z M33.92578125 18.1640625 C32.79269531 19.01291016 32.79269531 19.01291016 31.63671875 19.87890625 C31.07210937 20.30300781 30.5075 20.72710937 29.92578125 21.1640625 C35.07119969 32.13965255 35.07119969 32.13965255 44.45166016 39.15478516 C50.51054877 40.76887224 56.68866073 41.59681679 62.92578125 42.1640625 C65.94850717 32.09243883 67.02670182 22.39862793 63.92578125 12.1640625 C61.86049223 8.84130961 61.86049223 8.84130961 58.92578125 7.1640625 C49.34438069 6.32884173 41.17943792 12.67928 33.92578125 18.1640625 Z M22.92578125 29.1640625 C21.75615439 30.47392523 20.59015181 31.7870251 19.42578125 33.1015625 C18.77609375 33.83246094 18.12640625 34.56335937 17.45703125 35.31640625 C15.81943115 36.892438 15.81943115 36.892438 15.92578125 38.1640625 C21.20578125 38.1640625 26.48578125 38.1640625 31.92578125 38.1640625 C30.99765625 36.8646875 30.06953125 35.5653125 29.11328125 34.2265625 C28.59121094 33.49566406 28.06914062 32.76476563 27.53125 32.01171875 C25.96710998 29.89523024 25.96710998 29.89523024 22.92578125 29.1640625 Z M5.78125 50.7890625 C4.7872332 52.55766842 3.83160231 54.34870454 2.92578125 56.1640625 C2.18383523 57.37217088 1.43506022 58.57614672 0.67578125 59.7734375 C0.09828125 60.80984375 -0.47921875 61.84625 -1.07421875 62.9140625 C-1.67234375 63.96078125 -2.27046875 65.0075 -2.88671875 66.0859375 C-4.30523356 69.7628772 -4.18102033 71.40971354 -3.07421875 75.1640625 C-1.6811261 78.36712554 -1.6811261 78.36712554 0.11328125 81.5390625 C0.68433594 82.59867188 1.25539063 83.65828125 1.84375 84.75 C2.53082031 85.87664062 3.21789062 87.00328125 3.92578125 88.1640625 C4.28438232 88.87578613 4.6429834 89.58750977 5.01245117 90.32080078 C7.1683552 94.00289577 8.70637671 95.83993588 12.91821289 96.95947266 C16.599588 97.31717922 20.16572395 97.35369846 23.86328125 97.2890625 C25.11302734 97.33675781 26.36277344 97.38445312 27.65039062 97.43359375 C34.5178827 97.47301618 34.5178827 97.47301618 40.22314453 94.09570312 C42.04326128 91.53172101 43.50980505 88.9687392 44.92578125 86.1640625 C45.66857385 84.95647444 46.41747938 83.75259737 47.17578125 82.5546875 C48.04203125 81.00007813 48.04203125 81.00007813 48.92578125 79.4140625 C49.52390625 78.36734375 50.12203125 77.320625 50.73828125 76.2421875 C52.2025719 72.446592 52.16272719 71.0395129 50.92578125 67.1640625 C49.2753841 63.81314449 47.40685398 60.61737198 45.48828125 57.4140625 C44.73321289 56.12048828 44.73321289 56.12048828 43.96289062 54.80078125 C41.31259972 50.20462598 41.31259972 50.20462598 37.92578125 46.1640625 C33.38825007 45.51248572 28.81661073 45.51493706 24.23828125 45.4140625 C22.97048828 45.33929688 21.70269531 45.26453125 20.39648438 45.1875 C13.72952463 45.06190578 9.80484444 45.10856755 5.78125 50.7890625 Z M48.92578125 47.1640625 C50.33735104 50.69298697 51.69962658 53.71268453 53.55078125 56.9765625 C53.99679687 57.76675781 54.4428125 58.55695313 54.90234375 59.37109375 C55.24007812 59.96277344 55.5778125 60.55445313 55.92578125 61.1640625 C58.20004171 60.31976574 58.20004171 60.31976574 58.77734375 57.66015625 C59.03257812 56.65082031 59.2878125 55.64148438 59.55078125 54.6015625 C60.00453125 52.8071875 60.45828125 51.0128125 60.92578125 49.1640625 C54.98578125 48.1740625 54.98578125 48.1740625 48.92578125 47.1640625 Z M-13.07421875 49.1640625 C-12.52315966 53.1133193 -11.68486504 56.51326424 -10.07421875 60.1640625 C-6.41346685 58.94381187 -6.15082434 58.0375715 -4.38671875 54.7265625 C-3.94972656 53.92347656 -3.51273437 53.12039062 -3.0625 52.29296875 C-1.93386461 50.25290419 -1.93386461 50.25290419 -2.07421875 48.1640625 C-5.86338129 48.05261654 -9.34991518 48.47116881 -13.07421875 49.1640625 Z M-44.44921875 62.4140625 C-48.3006224 66.29439112 -48.3006224 66.29439112 -49.01171875 71.4765625 C-47.36077944 77.9702571 -43.85689594 80.85730039 -38.38671875 84.2890625 C-30.18281161 89.15418237 -30.18281161 89.15418237 -21.07421875 91.1640625 C-19.79795965 88.20297885 -18.58766291 85.21889646 -17.38671875 82.2265625 C-17.02771484 81.39576172 -16.66871094 80.56496094 -16.29882812 79.70898438 C-14.09689787 74.10605293 -13.82927252 70.78577216 -16.15161133 65.19750977 C-16.45607178 64.52647217 -16.76053223 63.85543457 -17.07421875 63.1640625 C-17.65236328 61.53791016 -17.65236328 61.53791016 -18.2421875 59.87890625 C-18.57863281 58.96238281 -18.91507812 58.04585937 -19.26171875 57.1015625 C-19.60589844 56.16183594 -19.95007813 55.22210938 -20.3046875 54.25390625 C-20.55863281 53.56425781 -20.81257813 52.87460938 -21.07421875 52.1640625 C-28.57125399 52.1640625 -38.7532651 57.59068048 -44.44921875 62.4140625 Z M68.92578125 52.1640625 C67.71952248 54.86536019 66.53584733 57.5731761 65.36328125 60.2890625 C64.84991211 61.42988281 64.84991211 61.42988281 64.32617188 62.59375 C61.6382597 68.89269571 61.93821149 72.65029289 64.3359375 79.03125 C64.88051456 80.36972855 65.43140276 81.70565508 65.98828125 83.0390625 C66.41077148 84.07160156 66.41077148 84.07160156 66.84179688 85.125 C67.53093391 86.80696159 68.22758923 88.48583947 68.92578125 90.1640625 C78.28289558 89.05317221 88.50373711 83.98500355 94.77734375 76.8515625 C96.60086976 74.17209571 97.13247856 72.40232035 96.92578125 69.1640625 C92.6644014 59.86650647 82.63745605 56.39015909 73.6484375 53.046875 C71.08573386 52.06124985 71.08573386 52.06124985 68.92578125 52.1640625 Z M55.92578125 81.1640625 C54.94358498 82.93321725 53.96512766 84.70444819 52.98828125 86.4765625 C52.44300781 87.46269531 51.89773438 88.44882813 51.3359375 89.46484375 C49.84223893 92.14968466 49.84223893 92.14968466 48.92578125 95.1640625 C52.88578125 94.5040625 56.84578125 93.8440625 60.92578125 93.1640625 C60.09265566 88.16530895 59.27083819 85.44634038 56.92578125 81.1640625 C56.59578125 81.1640625 56.26578125 81.1640625 55.92578125 81.1640625 Z M-10.07421875 82.1640625 C-10.58037173 83.43245776 -11.07890974 84.70389352 -11.57421875 85.9765625 C-11.85265625 86.68425781 -12.13109375 87.39195313 -12.41796875 88.12109375 C-13.22713495 90.28247466 -13.22713495 90.28247466 -13.07421875 93.1640625 C-7.13421875 94.1540625 -7.13421875 94.1540625 -1.07421875 95.1640625 C-1.49574219 94.39320312 -1.91726563 93.62234375 -2.3515625 92.828125 C-2.89941406 91.82523438 -3.44726562 90.82234375 -4.01171875 89.7890625 C-4.55699219 88.79132813 -5.10226562 87.79359375 -5.6640625 86.765625 C-6.48919465 85.24335904 -7.29986266 83.71277467 -8.07421875 82.1640625 C-8.73421875 82.1640625 -9.39421875 82.1640625 -10.07421875 82.1640625 Z M-16.07421875 101.1640625 C-18.66262504 113.02598623 -19.62591761 123.06066477 -14.07421875 134.1640625 C-6.02750632 136.03204932 -0.66197629 134.35061059 6.31640625 130.09765625 C7.50400122 129.31528298 8.6863176 128.5248396 9.86328125 127.7265625 C10.43135498 127.34322754 10.99942871 126.95989258 11.5847168 126.56494141 C14.60465001 124.42470212 16.64938929 122.68818872 17.92578125 119.1640625 C17.3946875 118.58398438 16.86359375 118.00390625 16.31640625 117.40625 C15.61 116.62507813 14.90359375 115.84390625 14.17578125 115.0390625 C13.13164062 113.89050781 13.13164062 113.89050781 12.06640625 112.71875 C9.92578125 110.1640625 9.92578125 110.1640625 8.36328125 106.9765625 C4.57615761 102.60680445 0.22852253 102.79641957 -5.32421875 102.2890625 C-6.35546875 102.17304687 -7.38671875 102.05703125 -8.44921875 101.9375 C-10.98929867 101.6552689 -13.52935486 101.39847458 -16.07421875 101.1640625 Z M40.10058594 105.48291016 C37.05024451 108.63601492 35.02029641 112.34560025 32.92578125 116.1640625 C31.21484375 118.03515625 31.21484375 118.03515625 29.92578125 119.1640625 C31.71851829 124.54227363 37.38105971 127.06339966 41.92578125 130.1640625 C42.56386719 130.6178125 43.20195313 131.0715625 43.859375 131.5390625 C48.47316482 134.54853691 53.47336725 135.69082114 58.92578125 135.1640625 C62.42647171 132.83026886 63.59487205 130.93618397 65.23828125 127.1015625 C66.84289622 117.91149493 65.92175842 109.21724464 63.92578125 100.1640625 C56.60134412 100.1640625 46.12495044 101.12983136 40.10058594 105.48291016 Z M15.92578125 104.1640625 C19.05865671 108.8633757 20.63170882 111.06278796 24.92578125 114.1640625 C26.09534716 112.68718718 27.26136271 111.20749957 28.42578125 109.7265625 C29.4003125 108.49099609 29.4003125 108.49099609 30.39453125 107.23046875 C32.02501005 105.45880721 32.02501005 105.45880721 31.92578125 104.1640625 C26.64578125 104.1640625 21.36578125 104.1640625 15.92578125 104.1640625 Z " fill="#00D8FE" transform="translate(478.07421875,17.8359375)"/>
<path d="M0 0 C0 0.66 0 1.32 0 2 C1.32 2 2.64 2 4 2 C4 2.99 4 3.98 4 5 C5.32 5 6.64 5 8 5 C8 5.66 8 6.32 8 7 C9.32 7 10.64 7 12 7 C12 7.66 12 8.32 12 9 C12.99 9 13.98 9 15 9 C15 9.66 15 10.32 15 11 C16.32 11 17.64 11 19 11 C19 11.66 19 12.32 19 13 C20.65 13.33 22.3 13.66 24 14 C24 14.66 24 15.32 24 16 C24.598125 16.144375 25.19625 16.28875 25.8125 16.4375 C27.56150404 16.8872439 29.28677023 17.42892341 31 18 C31 18.66 31 19.32 31 20 C32.32 20 33.64 20 35 20 C35 20.66 35 21.32 35 22 C36.32 22 37.64 22 39 22 C40.5 23.375 40.5 23.375 42 25 C44.09989652 26.17574711 44.09989652 26.17574711 46 27 C46 27.66 46 28.32 46 29 C47.32 29 48.64 29 50 29 C50 29.66 50 30.32 50 31 C51.32 31 52.64 31 54 31 C54 31.66 54 32.32 54 33 C54.57362274 33.03944733 55.14724548 33.07889465 55.73825073 33.11953735 C60.61352495 35.01740327 63.12282762 41.42182464 65.23178864 45.98235321 C67.3838247 51.63450683 67.09819782 57.64923218 66.9921875 63.6015625 C66.99249871 65.0549651 66.9954969 66.50836929 67.00100708 67.96176147 C67.00375031 70.98275677 66.97908898 74.00182417 66.93310547 77.02246094 C66.87622937 80.86017088 66.88186654 84.6947006 66.90728569 88.53264809 C66.92130979 91.52550615 66.90550062 94.51765111 66.88077164 97.51041794 C66.87185592 98.92392603 66.87096783 100.33751221 66.87890244 101.75102615 C66.91294408 113.14138551 64.23332225 121.62115881 57.375 130.75 C55 133 55 133 51 133 C51 133.66 51 134.32 51 135 C50.21753906 135.33773437 49.43507813 135.67546875 48.62890625 136.0234375 C47.61699219 136.46945313 46.60507812 136.91546875 45.5625 137.375 C44.55316406 137.81585938 43.54382813 138.25671875 42.50390625 138.7109375 C39.87856453 139.75076286 39.87856453 139.75076286 39 142 C37.68 142 36.36 142 35 142 C35 142.66 35 143.32 35 144 C34.01 144 33.02 144 32 144 C32 144.66 32 145.32 32 146 C30.68 146 29.36 146 28 146 C28 146.66 28 147.32 28 148 C26.68 148 25.36 148 24 148 C23.67 148.99 23.34 149.98 23 151 C22.01 151 21.02 151 20 151 C20 151.66 20 152.32 20 153 C19.01 153 18.02 153 17 153 C17 153.66 17 154.32 17 155 C15.68 155 14.36 155 13 155 C13 155.66 13 156.32 13 157 C9.01811282 158.71767682 5.03520597 160.41037341 1 162 C1 162.66 1 163.32 1 164 C-2.06462904 164.89385014 -4.81181379 165.13472008 -8 165.125 C-8.845625 165.12757813 -9.69125 165.13015625 -10.5625 165.1328125 C-12.84698944 165.00833711 -14.80991574 164.63877457 -17 164 C-17 163.34 -17 162.68 -17 162 C-18.32 162 -19.64 162 -21 162 C-21.5775 161.401875 -22.155 160.80375 -22.75 160.1875 C-25.85922717 157.16464025 -28.90225702 156.36591433 -33 155 C-33 154.34 -33 153.68 -33 153 C-33.99 153 -34.98 153 -36 153 C-36 152.34 -36 151.68 -36 151 C-36.66 151 -37.32 151 -38 151 C-38 149.35 -38 147.7 -38 146 C-36.35 146 -34.7 146 -33 146 C-33 145.34 -33 144.68 -33 144 C-29.49223216 142.39644899 -26.85645121 141.77963136 -23 142 C-23 142.66 -23 143.32 -23 144 C-21.68 144 -20.36 144 -19 144 C-19 144.66 -19 145.32 -19 146 C-15.6136749 147.50930183 -15.6136749 147.50930183 -12 148 C-11.67 148.66 -11.34 149.32 -11 150 C-8.58354218 150.16687448 -8.58354218 150.16687448 -6 150 C-5.34 149.34 -4.68 148.68 -4 148 C-2 146 -2 146 0.625 145.875 C1.40875 145.91625 2.1925 145.9575 3 146 C3 145.34 3 144.68 3 144 C4.32 144 5.64 144 7 144 C7 143.34 7 142.68 7 142 C7.969375 141.54625 8.93875 141.0925 9.9375 140.625 C13.07079582 139.34213779 13.07079582 139.34213779 14 137 C14.99 137 15.98 137 17 137 C17.33 136.34 17.66 135.68 18 135 C19.32 135 20.64 135 22 135 C22 134.34 22 133.68 22 133 C22.99 133 23.98 133 25 133 C25 132.34 25 131.68 25 131 C26.32 131 27.64 131 29 131 C29 130.34 29 129.68 29 129 C29.639375 128.87625 30.27875 128.7525 30.9375 128.625 C31.618125 128.41875 32.29875 128.2125 33 128 C33.33 127.34 33.66 126.68 34 126 C34.99 126 35.98 126 37 126 C37 125.34 37 124.68 37 124 C40.08809695 122.23537317 41.23312136 122 45 122 C45 121.34 45 120.68 45 120 C46.98 119.34 48.96 118.68 51 118 C51 94.24 51 70.48 51 46 C50.01 46.33 49.02 46.66 48 47 C46.5 45.625 46.5 45.625 45 44 C45 43.34 45 42.68 45 42 C44.2575 41.855625 43.515 41.71125 42.75 41.5625 C40.47972261 41.09812508 38.24240521 40.58136431 36 40 C36 39.34 36 38.68 36 38 C35.01 38 34.02 38 33 38 C33 37.34 33 36.68 33 36 C31.02 35.505 31.02 35.505 29 35 C29 34.34 29 33.68 29 33 C27.68 33 26.36 33 25 33 C25 32.34 25 31.68 25 31 C23.68 31 22.36 31 21 31 C21 30.34 21 29.68 21 29 C20.01 29 19.02 29 18 29 C18 28.34 18 27.68 18 27 C16.68 27 15.36 27 14 27 C13.505 26.01 13.505 26.01 13 25 C11.344389 24.06606559 9.65049478 23.19897217 7.9375 22.375 C6.55884766 21.70597656 6.55884766 21.70597656 5.15234375 21.0234375 C4.44207031 20.68570312 3.73179687 20.34796875 3 20 C3 19.34 3 18.68 3 18 C2.21625 18.04125 1.4325 18.0825 0.625 18.125 C-2 18 -2 18 -4 16 C-4.66 16 -5.32 16 -6 16 C-6.495 15.01 -6.495 15.01 -7 14 C-10.02419525 14.58803797 -13.01758453 15.22678118 -16 16 C-16 16.66 -16 17.32 -16 18 C-16.99 18 -17.98 18 -19 18 C-19 18.66 -19 19.32 -19 20 C-20.32 20 -21.64 20 -23 20 C-23 20.66 -23 21.32 -23 22 C-24.32 22 -25.64 22 -27 22 C-27 22.66 -27 23.32 -27 24 C-27.639375 24.12375 -28.27875 24.2475 -28.9375 24.375 C-29.618125 24.58125 -30.29875 24.7875 -31 25 C-31.33 25.66 -31.66 26.32 -32 27 C-34.26969744 29.26969744 -35.97395487 29.99131829 -39 31 C-40.32 31 -41.64 31 -43 31 C-43 31.66 -43 32.32 -43 33 C-44.4540625 33.680625 -44.4540625 33.680625 -45.9375 34.375 C-49.07079582 35.65786221 -49.07079582 35.65786221 -50 38 C-51.32 38 -52.64 38 -54 38 C-54 38.66 -54 39.32 -54 40 C-55.32 40 -56.64 40 -58 40 C-58 40.66 -58 41.32 -58 42 C-58.99 42 -59.98 42 -61 42 C-61 42.66 -61 43.32 -61 44 C-62.32 44 -63.64 44 -65 44 C-65 44.99 -65 45.98 -65 47 C-66.32 46.67 -67.64 46.34 -69 46 C-69 69.76 -69 93.52 -69 118 C-67.515 117.505 -67.515 117.505 -66 117 C-65.67 117.99 -65.34 118.98 -65 120 C-63.26566343 120.56058477 -63.26566343 120.56058477 -61 121 C-58.63681559 121.93817407 -56.32602092 122.97118305 -54 124 C-54 124.66 -54 125.32 -54 126 C-52.35 126 -50.7 126 -49 126 C-49 126.66 -49 127.32 -49 128 C-47.68 128 -46.36 128 -45 128 C-44.67 127.34 -44.34 126.68 -44 126 C-42.02 125.01 -42.02 125.01 -40 124 C-40 99.91 -40 75.82 -40 51 C-30 50 -30 50 -27 51 C-27 77.73 -27 104.46 -27 132 C-27.66 132 -28.32 132 -29 132 C-29.0825 132.763125 -29.165 133.52625 -29.25 134.3125 C-30.14615794 137.52373261 -31.21611025 138.29374499 -34 140 C-34.66 139.67 -35.32 139.34 -36 139 C-36 139.99 -36 140.98 -36 142 C-39.12492251 142.05791844 -42.24970766 142.09356746 -45.375 142.125 C-46.70917969 142.15013672 -46.70917969 142.15013672 -48.0703125 142.17578125 C-48.92109375 142.18222656 -49.771875 142.18867188 -50.6484375 142.1953125 C-51.43395996 142.20578613 -52.21948242 142.21625977 -53.02880859 142.22705078 C-55 142 -55 142 -57 140 C-57.99 139.67 -58.98 139.34 -60 139 C-60 138.34 -60 137.68 -60 137 C-61.32 137 -62.64 137 -64 137 C-64 136.34 -64 135.68 -64 135 C-65.32 135 -66.64 135 -68 135 C-68 134.34 -68 133.68 -68 133 C-69.32 133 -70.64 133 -72 133 C-72 132.34 -72 131.68 -72 131 C-72.99 131 -73.98 131 -75 131 C-76.7890625 128.76953125 -76.7890625 128.76953125 -78.625 125.8125 C-79.23601562 124.84957031 -79.84703125 123.88664062 -80.4765625 122.89453125 C-82.97658784 118.1444831 -83.12750689 113.79664953 -83.14526367 108.48486328 C-83.15164352 107.18646515 -83.15802338 105.88806702 -83.16459656 104.55032349 C-83.16612547 103.14032021 -83.1672393 101.73031642 -83.16796875 100.3203125 C-83.17118502 98.86449145 -83.17454936 97.40867072 -83.17805481 95.95285034 C-83.1840327 92.90491995 -83.18589609 89.85701787 -83.18530273 86.80908203 C-83.18520118 82.91659707 -83.19885215 79.02429481 -83.21607494 75.1318531 C-83.22723046 72.12571388 -83.22922085 69.11961834 -83.22869301 66.11346054 C-83.22986782 64.67903896 -83.2342614 63.24461605 -83.24202538 61.810215 C-83.2518968 59.79814278 -83.24766465 57.78601661 -83.24291992 55.77392578 C-83.24505745 54.06113937 -83.24505745 54.06113937 -83.24723816 52.31375122 C-82.83395673 46.7745099 -81.50577661 42.05679524 -78.125 37.625 C-77.63257813 36.95726562 -77.14015625 36.28953125 -76.6328125 35.6015625 C-74.77684654 33.78111742 -73.537799 33.384515 -71 33 C-71 32.34 -71 31.68 -71 31 C-69.68 31 -68.36 31 -67 31 C-67 30.34 -67 29.68 -67 29 C-65.75264433 28.3490741 -64.50198168 27.70448331 -63.25 27.0625 C-62.55390625 26.70285156 -61.8578125 26.34320312 -61.140625 25.97265625 C-59.09775567 25.04441818 -57.18884624 24.46833422 -55 24 C-55 23.34 -55 22.68 -55 22 C-54.01 22 -53.02 22 -52 22 C-52 21.34 -52 20.68 -52 20 C-50.68 20 -49.36 20 -48 20 C-48 19.34 -48 18.68 -48 18 C-46.68 18 -45.36 18 -44 18 C-44 17.34 -44 16.68 -44 16 C-38.25 13 -38.25 13 -36 13 C-36 12.34 -36 11.68 -36 11 C-35.01 11 -34.02 11 -33 11 C-33 10.34 -33 9.68 -33 9 C-31.7625 8.5875 -30.525 8.175 -29.25 7.75 C-25.62391172 6.41575273 -23.68838274 4.78439641 -21 2 C-19.68 2 -18.36 2 -17 2 C-17 1.34 -17 0.68 -17 0 C-11.54045091 -1.8198497 -5.50982274 -1.37745568 0 0 Z " fill="#529D42" transform="translate(338,1)"/>
<path d="M0 0 C0.99 0 1.98 0 3 0 C3.30550781 0.65484375 3.61101563 1.3096875 3.92578125 1.984375 C6.77380099 7.6643693 9.96000623 12.31543846 14.375 16.875 C30.94316065 34.17908807 38.56464671 56.44519183 38.41772461 80.05249023 C37.9383832 99.27573353 30.65731216 115.53237273 17 129 C15.8553125 130.12921875 15.8553125 130.12921875 14.6875 131.28125 C13.31362038 132.63550276 11.92959164 133.97961429 10.53125 135.30859375 C7.26446956 138.91705275 7.68314525 143.57661787 7.4375 148.1875 C7.39431641 148.93708984 7.35113281 149.68667969 7.30664062 150.45898438 C7.20077315 152.30578375 7.0999024 154.15286834 7 156 C1.125 155.125 1.125 155.125 0 154 C-0.13691533 152.07475986 -0.27130857 150.14929616 -0.39086914 148.22290039 C-0.78056817 141.0695069 -0.78056817 141.0695069 -3.59375 134.66796875 C-5.55266826 133.02641007 -5.55266826 133.02641007 -7.72265625 131.57421875 C-20.80192804 122.53314408 -29.06349657 105.77775816 -32.54199219 90.64160156 C-36.96204745 65.14853232 -29.62257074 40.73755327 -15.30957031 19.78564453 C-12.32566193 15.71698199 -8.74412795 12.35077599 -5 9 C-1.79994615 6.01479075 -0.49102269 4.41920418 0 0 Z " fill="#59AA51" transform="translate(35,1)"/>
<path d="M0 0 C0.99 0 1.98 0 3 0 C4.14136285 1.83309791 5.27254336 3.67311661 6.359375 5.5390625 C8.26049804 8.39074706 10.44468509 10.71073656 12.8125 13.1875 C29.92256713 31.66840337 36.95705262 54.42357722 36.33984375 79.17578125 C35.52935432 97.09596221 27.62150282 112.51372757 15 125 C13.948125 126.07121094 13.948125 126.07121094 12.875 127.1640625 C11.26547474 128.79305783 9.64282282 130.40471867 8 132 C6.1875 131.5 6.1875 131.5 4 130 C1.02634604 123.68759296 0.60638459 118.45030172 0.7421875 111.54296875 C0.74916656 110.51420624 0.75614563 109.48544373 0.76333618 108.42550659 C0.77950816 106.18710973 0.80224746 103.94875278 0.83081055 101.71047974 C0.90730652 95.61188064 0.93251498 89.51304515 0.9609375 83.4140625 C0.96796692 82.1165657 0.97499634 80.81906891 0.98223877 79.48225403 C1.0544077 63.76422795 0.79603585 48.05030158 0.53733063 32.33484268 C0.49990041 30.05643812 0.46319402 27.77802295 0.42669678 25.49960327 C0.29027733 16.99963345 0.14846446 8.4997692 0 0 Z " fill="#4B9E4C" transform="translate(37,5)"/>
<path d="M0 0 C9.9 0 19.8 0 30 0 C30 0.66 30 1.32 30 2 C31.65 2 33.3 2 35 2 C35 2.66 35 3.32 35 4 C36.32 4.33 37.64 4.66 39 5 C39 5.66 39 6.32 39 7 C39.66 7 40.32 7 41 7 C41.495 8.98 41.495 8.98 42 11 C42.66 11 43.32 11 44 11 C44 12.32 44 13.64 44 15 C44.66 15 45.32 15 46 15 C46 17.97 46 20.94 46 24 C41.56770228 26.21614886 38.82249354 26.51387226 34 26 C31.5 25 31.5 25 30 24 C30 21.69 30 19.38 30 17 C29.34 17 28.68 17 28 17 C28 16.34 28 15.68 28 15 C26.68 15 25.36 15 24 15 C24 14.34 24 13.68 24 13 C17.73 13 11.46 13 5 13 C5 13.66 5 14.32 5 15 C3.68 15 2.36 15 1 15 C1 15.66 1 16.32 1 17 C0.34 17 -0.32 17 -1 17 C-1 18.65 -1 20.3 -1 22 C0.32 22 1.64 22 3 22 C3 22.66 3 23.32 3 24 C6.63 24 10.26 24 14 24 C14 24.66 14 25.32 14 26 C18.95 26 23.9 26 29 26 C29.495 26.99 29.495 26.99 30 28 C32.31074405 28.74118205 34.64811553 29.40206327 37 30 C38.2065625 30.309375 38.2065625 30.309375 39.4375 30.625 C39.953125 30.74875 40.46875 30.8725 41 31 C41 31.66 41 32.32 41 33 C41.99 33 42.98 33 44 33 C44 33.66 44 34.32 44 35 C44.66 35 45.32 35 46 35 C48.44989101 38.74235319 48.23086143 42.44225419 48.125 46.75 C48.11597656 47.44738281 48.10695313 48.14476562 48.09765625 48.86328125 C48.07419888 50.57566958 48.03833104 52.28788004 48 54 C47.34 54 46.68 54 46 54 C46 55.32 46 56.64 46 58 C45.34 58 44.68 58 44 58 C43.34 59.32 42.68 60.64 42 62 C41.34 62 40.68 62 40 62 C40 62.66 40 63.32 40 64 C38.68 64 37.36 64 36 64 C36 64.66 36 65.32 36 66 C31.61218845 67.6724172 27.9681025 68.25639372 23.28125 68.265625 C22.01925781 68.26820312 20.75726563 68.27078125 19.45703125 68.2734375 C18.15121094 68.26570313 16.84539062 68.25796875 15.5 68.25 C13.54126953 68.26160156 13.54126953 68.26160156 11.54296875 68.2734375 C10.28097656 68.27085938 9.01898438 68.26828125 7.71875 68.265625 C6.57341797 68.26336914 5.42808594 68.26111328 4.24804688 68.25878906 C0.87740826 67.99023247 -1.85060881 67.20039248 -5 66 C-5 65.34 -5 64.68 -5 64 C-6.32 64 -7.64 64 -9 64 C-10.75 62.625 -10.75 62.625 -12 61 C-12 60.34 -12 59.68 -12 59 C-12.66 59 -13.32 59 -14 59 C-14 57.68 -14 56.36 -14 55 C-14.66 55 -15.32 55 -16 55 C-16.98248196 50.94726192 -17.16017882 47.16464926 -17 43 C-16 42 -16 42 -13.05859375 41.90234375 C-11.86363281 41.91394531 -10.66867187 41.92554688 -9.4375 41.9375 C-7.64119141 41.95103516 -7.64119141 41.95103516 -5.80859375 41.96484375 C-4.88175781 41.97644531 -3.95492188 41.98804688 -3 42 C-3 44.31 -3 46.62 -3 49 C-2.34 49 -1.68 49 -1 49 C-0.34 49.99 0.32 50.98 1 52 C4.06556598 52.73343428 4.06556598 52.73343428 7 53 C7 53.66 7 54.32 7 55 C12.94 55 18.88 55 25 55 C25 54.34 25 53.68 25 53 C26.98 53 28.96 53 31 53 C31 52.34 31 51.68 31 51 C31.66 51 32.32 51 33 51 C33 48.69 33 46.38 33 44 C31.68 44 30.36 44 29 44 C29 43.34 29 42.68 29 42 C26.03 42 23.06 42 20 42 C20 41.34 20 40.68 20 40 C14.06 40 8.12 40 2 40 C2 39.34 2 38.68 2 38 C-1.465 37.505 -1.465 37.505 -5 37 C-5 36.34 -5 35.68 -5 35 C-6.32 35 -7.64 35 -9 35 C-9 34.34 -9 33.68 -9 33 C-9.99 32.67 -10.98 32.34 -12 32 C-12 31.01 -12 30.02 -12 29 C-12.66 29 -13.32 29 -14 29 C-14.73030908 22.78675502 -15.23180249 17.15901243 -14 11 C-13.34 11 -12.68 11 -12 11 C-12 9.68 -12 8.36 -12 7 C-10.75 5.25 -10.75 5.25 -9 4 C-7.68 4 -6.36 4 -5 4 C-5 3.34 -5 2.68 -5 2 C-3.35 2 -1.7 2 0 2 C0 1.34 0 0.68 0 0 Z " fill="#539E42" transform="translate(332,50)"/>
<path d="M0 0 C4.49033689 2.07885967 7.10101557 4.72890845 9.30078125 9.08203125 C10.88550333 13.42895048 10.84135871 17.00222059 9.08203125 21.1796875 C6.51610395 25.71365613 4.12151037 28.42415066 -1 30 C-5.16800173 30.75147987 -8.48084379 30.8024261 -12.28515625 28.79296875 C-15.81693036 26.26111616 -18.42360674 24.13707109 -20 20 C-20.69671833 15.09056616 -20.53659091 11.11445804 -18.375 6.625 C-12.84876096 0.51705158 -8.08838918 -1.27780741 0 0 Z " fill="#00D8FE" transform="translate(507,74)"/>
<path d="M0 0 C4.30535978 3.23806471 5.60976671 6.90549377 6.515625 12.10546875 C6.5465625 12.71777344 6.5775 13.33007812 6.609375 13.9609375 C5.609375 14.9609375 5.609375 14.9609375 2.65014648 15.07446289 C1.35665283 15.06922607 0.06315918 15.06398926 -1.26953125 15.05859375 C-2.29952492 15.05647133 -2.29952492 15.05647133 -3.35032654 15.05430603 C-5.55130301 15.04869229 -7.75217909 15.03613757 -9.953125 15.0234375 C-11.44205583 15.01842426 -12.93098824 15.01386105 -14.41992188 15.00976562 C-18.07685575 14.99871843 -21.73373058 14.98144463 -25.390625 14.9609375 C-26.19015638 11.67397517 -26.48721436 10.25070558 -25.390625 6.9609375 C-19.62300047 -1.6904993 -9.84077711 -4.27720051 0 0 Z " fill="#3C3C3C" transform="translate(144.390625,67.0390625)"/>
<path d="M0 0 C2.04105548 3.06158322 3.05603816 5.80759151 4.21875 9.2578125 C4.86786272 11.19773892 4.86786272 11.19773892 7 12 C6.84660156 12.65355469 6.69320312 13.30710938 6.53515625 13.98046875 C5.86620406 17.75492159 5.64592703 21.48905996 5.4375 25.3125 C5.39431641 26.05306641 5.35113281 26.79363281 5.30664062 27.55664062 C5.20129568 29.37091464 5.10021684 31.1854355 5 33 C-0.875 32.125 -0.875 32.125 -2 31 C-2.22513101 29.66197814 -2.39360807 28.31426977 -2.53515625 26.96484375 C-2.66567383 25.75151367 -2.66567383 25.75151367 -2.79882812 24.51367188 C-2.9293457 23.2384668 -2.9293457 23.2384668 -3.0625 21.9375 C-3.19881836 20.65649414 -3.19881836 20.65649414 -3.33789062 19.34960938 C-3.56250722 17.23348465 -3.78175227 15.11679106 -4 13 C-3.34 13 -2.68 13 -2 13 C-1.93941406 12.22914063 -1.87882812 11.45828125 -1.81640625 10.6640625 C-1.69072266 9.15972656 -1.69072266 9.15972656 -1.5625 7.625 C-1.48128906 6.62726563 -1.40007813 5.62953125 -1.31640625 4.6015625 C-1 2 -1 2 0 0 Z " fill="#A7A888" transform="translate(37,124)"/>
<path d="M0 0 C0.33 0.99 0.66 1.98 1 3 C-0.75 5.375 -0.75 5.375 -3 8 C-3.474375 8.804375 -3.94875 9.60875 -4.4375 10.4375 C-6 13 -6 13 -8.6875 15.9375 C-11.1275433 18.76916313 -11.1275433 18.76916313 -11.75 21.8125 C-10.56154983 26.86341321 -7.27726686 30.07559167 -4 34 C-2.32830609 36.12657203 -0.69280948 38.27911696 0.9375 40.4375 C1.70964844 41.44683594 2.48179687 42.45617187 3.27734375 43.49609375 C5 46 5 46 5 48 C5.66 48 6.32 48 7 48 C7 49.65 7 51.3 7 53 C5.08458862 53.10841951 3.16740227 53.18578079 1.25 53.25 C0.18265625 53.29640625 -0.8846875 53.3428125 -1.984375 53.390625 C-5.71850663 52.90692919 -6.66716242 51.87903806 -9 49 C-9.75216797 48.11828125 -9.75216797 48.11828125 -10.51953125 47.21875 C-10.94621094 46.6515625 -11.37289062 46.084375 -11.8125 45.5 C-12.25207031 44.9328125 -12.69164062 44.365625 -13.14453125 43.78125 C-14 42 -14 42 -13.63671875 39.78125 C-13.42660156 39.1934375 -13.21648437 38.605625 -13 38 C-11.66094733 39.7873962 -10.32890934 41.58004953 -9 43.375 C-8.2575 44.37273437 -7.515 45.37046875 -6.75 46.3984375 C-5 49 -5 49 -5 51 C-0.545 50.505 -0.545 50.505 4 50 C2.96750312 48.54286452 1.9345546 47.08604749 0.8996582 45.63061523 C0.00207642 44.36823208 -0.8938995 43.10470571 -1.78833008 41.84008789 C-4.02613876 38.69325582 -6.29323098 35.59189441 -8.703125 32.57421875 C-9.12150635 32.0440918 -9.5398877 31.51396484 -9.97094727 30.96777344 C-11.12980118 29.510078 -12.30474205 28.06521462 -13.48046875 26.62109375 C-15 24 -15 24 -14.79248047 21.62646484 C-13.9010526 18.67206529 -12.69622214 16.8139158 -10.83984375 14.35546875 C-10.21142578 13.51435547 -9.58300781 12.67324219 -8.93554688 11.80664062 C-8.27619141 10.94232422 -7.61683594 10.07800781 -6.9375 9.1875 C-6.27427734 8.30384766 -5.61105469 7.42019531 -4.92773438 6.50976562 C-3.29285646 4.33384898 -1.65015466 2.16434019 0 0 Z " fill="#858585" transform="translate(209,62)"/>
<path d="M0 0 C1.65322266 0.01740234 1.65322266 0.01740234 3.33984375 0.03515625 C4.99693359 0.04869141 4.99693359 0.04869141 6.6875 0.0625 C7.54214844 0.07410156 8.39679688 0.08570313 9.27734375 0.09765625 C8.94734375 1.41765625 8.61734375 2.73765625 8.27734375 4.09765625 C7.28734375 4.09765625 6.29734375 4.09765625 5.27734375 4.09765625 C5.60734375 3.43765625 5.93734375 2.77765625 6.27734375 2.09765625 C2.98870927 1.9214794 1.27547803 1.88716592 -1.72265625 3.09765625 C-4.87766844 6.44877523 -7.25740475 10.2236896 -9.72265625 14.09765625 C-10.71295939 15.50038587 -11.71119653 16.89760447 -12.72265625 18.28515625 C-13.38265625 19.21328125 -14.04265625 20.14140625 -14.72265625 21.09765625 C-17.08796734 20.71621502 -18.39138995 20.45456897 -20.04711914 18.6706543 C-20.42602295 18.07293213 -20.80492676 17.47520996 -21.1953125 16.859375 C-21.62005859 16.20388672 -22.04480469 15.54839844 -22.48242188 14.87304688 C-22.91232422 14.18404297 -23.34222656 13.49503906 -23.78515625 12.78515625 C-24.65015093 11.43432504 -25.51601314 10.08404889 -26.3828125 8.734375 C-26.78516113 8.10192871 -27.18750977 7.46948242 -27.60205078 6.81787109 C-28.88952429 4.84150108 -30.26740826 2.95369385 -31.72265625 1.09765625 C-29.24765625 1.59265625 -29.24765625 1.59265625 -26.72265625 2.09765625 C-26.72265625 3.08765625 -26.72265625 4.07765625 -26.72265625 5.09765625 C-26.06265625 5.09765625 -25.40265625 5.09765625 -24.72265625 5.09765625 C-24.72265625 6.08765625 -24.72265625 7.07765625 -24.72265625 8.09765625 C-24.06265625 8.09765625 -23.40265625 8.09765625 -22.72265625 8.09765625 C-22.39265625 9.41765625 -22.06265625 10.73765625 -21.72265625 12.09765625 C-21.06265625 12.09765625 -20.40265625 12.09765625 -19.72265625 12.09765625 C-19.06265625 13.74765625 -18.40265625 15.39765625 -17.72265625 17.09765625 C-13.11952805 15.56328018 -11.13456957 11.86366074 -8.53515625 8.03515625 C-7.64638435 6.75222227 -6.75708842 5.4696511 -5.8671875 4.1875 C-5.15949219 3.16785156 -4.45179688 2.14820313 -3.72265625 1.09765625 C-2.72265625 0.09765625 -2.72265625 0.09765625 0 0 Z " fill="#888888" transform="translate(204.72265625,56.90234375)"/>
<path d="M0 0 C5.44408101 1.53114778 8.97998092 5.22536809 13 9 C13.74894531 9.68449219 14.49789062 10.36898437 15.26953125 11.07421875 C25.79731795 21.06395843 32.75512697 33.84055406 36 48 C36 49.32 36 50.64 36 52 C35.01 51.67 34.02 51.34 33 51 C32.8453125 49.1746875 32.8453125 49.1746875 32.6875 47.3125 C32.22790243 43.51582439 31.00738568 41.26200173 29 38 C28.3125 34.1875 28.3125 34.1875 28 31 C27.34 31 26.68 31 26 31 C25.505 29.865625 25.01 28.73125 24.5 27.5625 C20.54179319 19.61791409 13.6266217 13.30754434 7.1875 7.3125 C6 6 6 6 6 4 C4.35 3.67 2.7 3.34 1 3 C0.67 2.01 0.34 1.02 0 0 Z " fill="#8A8A8A" transform="translate(200,24)"/>
<path d="M0 0 C-2.83219325 2.37904233 -5.68096474 3.72123531 -9.078125 5.13671875 C-15.38527656 7.96980919 -19.80312892 11.5576556 -24.19921875 16.86328125 C-26.14789573 19.17548583 -28.19365586 21.34297849 -30.3125 23.5 C-30.96863281 24.1703125 -31.62476562 24.840625 -32.30078125 25.53125 C-34 27 -34 27 -36 27 C-36.99 29.475 -36.99 29.475 -38 32 C-38.66 32 -39.32 32 -40 32 C-40.33 32.99 -40.66 33.98 -41 35 C-41.33 34.34 -41.66 33.68 -42 33 C-38.17881635 27.10520475 -34.00995729 21.65077196 -29.3125 16.4375 C-28.84932373 15.91317383 -28.38614746 15.38884766 -27.90893555 14.84863281 C-25.46366608 12.18841875 -23.69370298 10.35466469 -20 10 C-20 9.34 -20 8.68 -20 8 C-3.28430296 -1.64215148 -3.28430296 -1.64215148 0 0 Z " fill="#4A4A4A" transform="translate(140,18)"/>
<path d="M0 0 C0.33 0 0.66 0 1 0 C1.34147214 4.55296186 0.50482095 7.64551858 -1.16967773 11.76977539 C-3.74344878 18.68285934 -4.3525508 25.74610389 -4.625 33.0625 C-4.66367188 33.92810547 -4.70234375 34.79371094 -4.7421875 35.68554688 C-4.83520481 37.79006359 -4.91862669 39.8950009 -5 42 C-5.66 42 -6.32 42 -7 42 C-7.41581994 26.96437734 -7.64695565 13.44809442 0 0 Z " fill="#676767" transform="translate(97,53)"/>
<path d="M0 0 C0.66 0 1.32 0 2 0 C1.58188147 5.57491377 -0.11521098 9.98324362 -4 14 C-10.62491719 18.00195143 -17.30480603 20.03160209 -25 19 C-25.7734375 18.90460938 -26.546875 18.80921875 -27.34375 18.7109375 C-32.89935639 17.76648441 -35.9775625 15.91929808 -40 12 C-39.67 11.34 -39.34 10.68 -39 10 C-38.319375 10.61875 -37.63875 11.2375 -36.9375 11.875 C-30.68374528 16.39899278 -23.49088944 16.85219388 -16 16 C-10.27319102 14.36503139 -5.66945412 11.78140991 -2 7 C-1.07325574 4.65875135 -0.53424999 2.47697722 0 0 Z " fill="#676767" transform="translate(157,96)"/>
<path d="M0 0 C1.42788222 4.28364665 -0.41644522 6.99588435 -2.25 10.875 C-2.60408936 11.62716797 -2.95817871 12.37933594 -3.32299805 13.15429688 C-7.06018123 20.70377448 -11.95657171 27.14207274 -18 33 C-19.485 33.495 -19.485 33.495 -21 34 C-19.45977929 30.54252539 -17.3954266 27.85692617 -15 24.9375 C-12.86950813 22.33313035 -10.86787063 19.80180594 -9 17 C-8.34 17 -7.68 17 -7 17 C-6.67 15.02 -6.34 13.04 -6 11 C-5.34 11 -4.68 11 -4 11 C-3.896875 9.741875 -3.79375 8.48375 -3.6875 7.1875 C-3.35141192 4.39500343 -3.19974124 3.25566879 -1.4375 1 C-0.963125 0.67 -0.48875 0.34 0 0 Z " fill="#7C7C7C" transform="translate(233,105)"/>
<path d="M0 0 C4.24404412 3.88026891 7.10917547 8.04254346 10 13 C9.50371094 13.67804688 9.00742188 14.35609375 8.49609375 15.0546875 C3.92327143 21.31954085 -0.57718831 27.62838691 -5 34 C-5.495 32.515 -5.495 32.515 -6 31 C-4.85546875 28.73828125 -4.85546875 28.73828125 -3.1875 26.3125 C-2.64480469 25.50425781 -2.10210937 24.69601563 -1.54296875 23.86328125 C-0.77919922 22.94095703 -0.77919922 22.94095703 0 22 C0.66 22 1.32 22 2 22 C2.28875 21.05125 2.5775 20.1025 2.875 19.125 C4 16 4 16 6 14 C5.75073527 11.4242645 5.27753932 10.27753932 3.4375 8.4375 C2.963125 7.963125 2.48875 7.48875 2 7 C2 6.01 2 5.02 2 4 C1.34 4 0.68 4 0 4 C0 2.68 0 1.36 0 0 Z " fill="#7A7A7A" transform="translate(174,72)"/>
<path d="M0 0 C0.33 1.32 0.66 2.64 1 4 C0.34 4 -0.32 4 -1 4 C-1.226875 4.70125 -1.45375 5.4025 -1.6875 6.125 C-4.8251993 12.99805561 -4.8251993 12.99805561 -8 15 C-12.04754586 15.51187998 -15.94287344 15.3494176 -20 15 C-18.52307692 9.33846154 -18.52307692 9.33846154 -15.875 7.625 C-15.25625 7.41875 -14.6375 7.2125 -14 7 C-15 9 -16 11 -17 13 C-13.6193149 13.24586801 -12.06288976 13.31266704 -9 12 C-5.55285695 8.27666059 -2.76574377 4.24464842 0 0 Z " fill="#6B6B6B" transform="translate(181,100)"/>
<path d="M0 0 C3.58806317 3.38872633 6.45684799 6.76141332 9 11 C9 11.66 9 12.32 9 13 C12.3 13 15.6 13 19 13 C19 12.01 19 11.02 19 10 C19.66 10 20.32 10 21 10 C21 11.65 21 13.3 21 15 C19.08458862 15.10841951 17.16740227 15.18578079 15.25 15.25 C13.64898437 15.31960937 13.64898437 15.31960937 12.015625 15.390625 C8.28214542 14.90701365 7.32955301 13.88128925 5 11 C4.51015625 10.4121875 4.0203125 9.824375 3.515625 9.21875 C3.09796875 8.6515625 2.6803125 8.084375 2.25 7.5 C1.82203125 6.9328125 1.3940625 6.365625 0.953125 5.78125 C0 4 0 4 0 0 Z " fill="#5E5E5E" transform="translate(195,100)"/>
<path d="M0 0 C4.26121515 0.47346835 6.18373138 2.96139438 9 6 C9.66 6.66 10.32 7.32 11 8 C11 8.99 11 9.98 11 11 C11.99 11.33 12.98 11.66 14 12 C15.28317892 15.84953676 15.06643637 18.94738135 15 23 C14.34 23.33 13.68 23.66 13 24 C12.82984375 23.20335938 12.6596875 22.40671875 12.484375 21.5859375 C10.33872404 12.20442108 7.48934968 6.95743725 0 1 C0 0.67 0 0.34 0 0 Z " fill="#6C6C6C" transform="translate(145,60)"/>
<path d="M0 0 C3.5685304 3.44831395 6.72145524 6.98921262 9.75 10.9375 C10.52859375 11.93652344 11.3071875 12.93554688 12.109375 13.96484375 C14.07032511 17.11289795 14.67262842 19.33889447 15 23 C11.25427516 19.57733301 8.59112458 15.70261868 5.8125 11.5 C5.36197266 10.83613281 4.91144531 10.17226562 4.44726562 9.48828125 C4.01736328 8.84246094 3.58746094 8.19664063 3.14453125 7.53125 C2.75628174 6.94923828 2.36803223 6.36722656 1.96801758 5.76757812 C0.92599569 3.8648698 0.43554494 2.1175794 0 0 Z " fill="#787878" transform="translate(200,91)"/>
<path d="M0 0 C2 2 2 2 2.08984375 4.65234375 C2.03957031 5.73644531 1.98929687 6.82054688 1.9375 7.9375 C1.81468476 14.4250345 2.93898357 19.87829048 5 26 C3.07421875 25.37890625 3.07421875 25.37890625 1 24 C0.20703125 21.21484375 0.20703125 21.21484375 -0.1875 17.9375 C-0.35924319 14.15135491 -0.35924319 14.15135491 -2 11 C-1.93621032 9.32987017 -1.79971885 7.66219015 -1.625 6 C-1.53476563 5.0925 -1.44453125 4.185 -1.3515625 3.25 C-1 1 -1 1 0 0 Z " fill="#575757" transform="translate(110,78)"/>
<path d="M0 0 C0 3 0 3 -1.3203125 4.32421875 C-1.91585937 4.77410156 -2.51140625 5.22398438 -3.125 5.6875 C-8.06824441 9.71014019 -11.55222448 14.5180991 -14.75 20 C-15.1625 20.66 -15.575 21.32 -16 22 C-16.66 22 -17.32 22 -18 22 C-18.33 22.99 -18.66 23.98 -19 25 C-19.33 24.34 -19.66 23.68 -20 23 C-16.15445766 17.06762751 -11.96184169 11.63844488 -7.1875 6.4375 C-6.70756592 5.91317383 -6.22763184 5.38884766 -5.7331543 4.84863281 C-2.27092241 1.1354612 -2.27092241 1.1354612 0 0 Z " fill="#7F7F7F" transform="translate(118,28)"/>
<path d="M0 0 C0.33 0 0.66 0 1 0 C1.08782542 3.52067351 1.14066643 7.04106144 1.1875 10.5625 C1.21263672 11.55314453 1.23777344 12.54378906 1.26367188 13.56445312 C1.32313872 19.53095962 0.82397192 23.71524416 -2 29 C-2.66 29 -3.32 29 -4 29 C-3.34 26.03 -2.68 23.06 -2 20 C-1.34 20 -0.68 20 0 20 C0 18.02 0 16.04 0 14 C-0.66 14 -1.32 14 -2 14 C-2 12.68 -2 11.36 -2 10 C-1.34 10 -0.68 10 0 10 C0 6.7 0 3.4 0 0 Z " fill="#555555" transform="translate(235,77)"/>
<path d="M0 0 C0.66 0 1.32 0 2 0 C0.79645581 4.41299538 -0.43248681 7.08112557 -4 10 C-7.14930893 11.04976964 -9.38814456 11.10131595 -12.6875 11.0625 C-13.68136719 11.05347656 -14.67523438 11.04445313 -15.69921875 11.03515625 C-16.83810547 11.01775391 -16.83810547 11.01775391 -18 11 C-18 10.34 -18 9.68 -18 9 C-17.18015625 8.89042969 -16.3603125 8.78085938 -15.515625 8.66796875 C-14.43796875 8.50941406 -13.3603125 8.35085937 -12.25 8.1875 C-11.18265625 8.03667969 -10.1153125 7.88585937 -9.015625 7.73046875 C-5.91885597 6.98034465 -4.42138148 5.99055009 -2 4 C-1.34 4 -0.68 4 0 4 C0 2.68 0 1.36 0 0 Z " fill="#8A8A8A" transform="translate(149,96)"/>
<path d="M0 0 C0.66 0 1.32 0 2 0 C1.58567894 5.52428086 -0.18805357 9.98292641 -4 14 C-7.22030968 15.76279949 -10.48426323 16.96234565 -14 18 C-14.66 17.34 -15.32 16.68 -16 16 C-15.40832031 15.76925781 -14.81664062 15.53851563 -14.20703125 15.30078125 C-9.21231308 13.23933966 -5.37060513 11.39200063 -2 7 C-1.07325574 4.65875135 -0.53424999 2.47697722 0 0 Z " fill="#828282" transform="translate(157,96)"/>
<path d="M0 0 C7.34282966 2.06517084 12.82988127 8.66831506 18 14 C17.67 14.99 17.34 15.98 17 17 C16.484375 16.29875 15.96875 15.5975 15.4375 14.875 C12.9655374 11.9593518 10.36869003 9.70322169 7.390625 7.33203125 C6.93171875 6.89246094 6.4728125 6.45289063 6 6 C6 5.34 6 4.68 6 4 C4.35 3.67 2.7 3.34 1 3 C0.67 2.01 0.34 1.02 0 0 Z " fill="#858585" transform="translate(200,24)"/>
<path d="M0 0 C2.475 0.495 2.475 0.495 5 1 C5 1.99 5 2.98 5 4 C5.66 4 6.32 4 7 4 C7 4.99 7 5.98 7 7 C7.66 7 8.32 7 9 7 C9.33 8.32 9.66 9.64 10 11 C10.66 11 11.32 11 12 11 C12.33 12.32 12.66 13.64 13 15 C8.94269953 13.49862009 7.55135309 11.14323424 5.375 7.5 C2.99842954 3.5068664 2.99842954 3.5068664 0 0 Z " fill="#7E7E7E" transform="translate(173,58)"/>
<path d="M0 0 C1.75 0.125 1.75 0.125 4 1 C6.25 4.0625 6.25 4.0625 8 7 C7.67 7.66 7.34 8.32 7 9 C5 7 3 5 1 3 C0.34 3 -0.32 3 -1 3 C-1.33 4.65 -1.66 6.3 -2 8 C-2.99 8.33 -3.98 8.66 -5 9 C-3.7508258 5.54074837 -2.32472205 2.85306797 0 0 Z " fill="#888888" transform="translate(187,91)"/>
<path d="M0 0 C0.66 0.33 1.32 0.66 2 1 C-0.81268547 3.36265579 -3.6585436 4.78848958 -7.05078125 6.171875 C-10.44923039 7.6157051 -13.70998724 9.32613386 -17 11 C-15.1225881 6.73871159 -13.30177889 5.87713988 -9 4 C-8.23300781 3.63390625 -7.46601563 3.2678125 -6.67578125 2.890625 C-1.96807696 0.67701848 -1.96807696 0.67701848 0 0 Z " fill="#7A7A7A" transform="translate(138,17)"/>
<path d="M0 0 C0 0.66 0 1.32 0 2 C-0.58007812 2.23074219 -1.16015625 2.46148437 -1.7578125 2.69921875 C-6.9546106 4.86883908 -10.86151398 7.17985906 -15 11 C-14.75284804 7.66344848 -13.76926825 6.77463411 -11.3125 4.375 C-7.9394881 1.73348466 -4.36357279 0 0 0 Z " fill="#818181" transform="translate(130,58)"/>
<path d="M0 0 C6.14673271 1.46987086 11.42234327 4.05966587 17 7 C13.99353048 8.30230734 12.90644333 7.96485975 9.765625 6.78515625 C8.60546875 6.21667969 7.4453125 5.64820313 6.25 5.0625 C4.49429688 4.21365234 4.49429688 4.21365234 2.703125 3.34765625 C1.81109375 2.90292969 0.9190625 2.45820313 0 2 C0 1.34 0 0.68 0 0 Z " fill="#7A7A7A" transform="translate(183,16)"/>
<path d="M0 0 C0.66 0 1.32 0 2 0 C1 2 0 4 -1 6 C1.97 6.33 4.94 6.66 8 7 C8 7.33 8 7.66 8 8 C4.04 8 0.08 8 -4 8 C-2.25 2.25 -2.25 2.25 0 0 Z " fill="#626262" transform="translate(165,107)"/>
<path d="M0 0 C2.8722873 1.43614365 2.97011217 2.97470451 4 6 C6.35928735 13.6714892 6.35928735 13.6714892 5 18 C1.90787824 11.91643021 0.43300764 6.81987029 0 0 Z " fill="#747474" transform="translate(91,100)"/>
<path d="M0 0 C0.33 0.99 0.66 1.98 1 3 C-0.75 5.375 -0.75 5.375 -3 8 C-3.515625 8.86625 -4.03125 9.7325 -4.5625 10.625 C-5.86842624 12.78261727 -7.14123248 14.31825796 -9 16 C-8.47515308 11.44299575 -6.68492697 8.807126 -3.9375 5.1875 C-3.20402344 4.21167969 -2.47054687 3.23585938 -1.71484375 2.23046875 C-1.14894531 1.49441406 -0.58304688 0.75835937 0 0 Z " fill="#767676" transform="translate(209,62)"/>
<path d="M0 0 C3.7606782 0.2148959 4.97108473 0.97239906 7.75 3.625 C10.26943042 6.87893522 10.75371513 9.89525218 11 14 C10.34 13.34 9.68 12.68 9 12 C9 10.68 9 9.36 9 8 C8.01 7.67 7.02 7.34 6 7 C5.87625 6.360625 5.7525 5.72125 5.625 5.0625 C5.41875 4.381875 5.2125 3.70125 5 3 C2.50965614 1.70339566 2.50965614 1.70339566 0 1 C0 0.67 0 0.34 0 0 Z " fill="#848484" transform="translate(140,67)"/>
<path d="M0 0 C0.99 0.33 1.98 0.66 3 1 C2.07213211 2.00894372 1.13231567 3.00690907 0.1875 4 C-0.59560547 4.8353125 -0.59560547 4.8353125 -1.39453125 5.6875 C-3 7 -3 7 -6 7 C-6 7.66 -6 8.32 -6 9 C-6.99 9 -7.98 9 -9 9 C-9 8.34 -9 7.68 -9 7 C-7.68 6.67 -6.36 6.34 -5 6 C-5 5.34 -5 4.68 -5 4 C-2.6875 1.8125 -2.6875 1.8125 0 0 Z " fill="#757575" transform="translate(209,139)"/>
<path d="M0 0 C1.32 0.33 2.64 0.66 4 1 C3.67 1.33 3.34 1.66 3 2 C3.08984301 3.85772162 3.24611861 5.71247985 3.4375 7.5625 C3.53933594 8.57441406 3.64117187 9.58632812 3.74609375 10.62890625 C3.82988281 11.41136719 3.91367188 12.19382812 4 13 C2 11.5625 2 11.5625 0 9 C-0.35442445 5.97175582 -0.23347235 3.03514061 0 0 Z " fill="#808080" transform="translate(118,87)"/>
<path d="M0 0 C0.66 0 1.32 0 2 0 C2 4.95 2 9.9 2 15 C1.34 14.67 0.68 14.34 0 14 C0.020625 13.0925 0.04125 12.185 0.0625 11.25 C0.13158993 8.15743185 0.13158993 8.15743185 -0.5625 5.875 C-1.09000994 3.6142431 -0.70227228 2.18484708 0 0 Z " fill="#59A658" transform="translate(71,66)"/>
<path d="M0 0 C1.17571451 3.67410785 1.07366746 7.16929183 1 11 C-0.32 10.67 -1.64 10.34 -3 10 C-2.49287967 6.28111761 -1.88391785 3.26545761 0 0 Z " fill="#5C5C5C" transform="translate(121,71)"/>
<path d="M0 0 C1.21386936 3.64160808 0.6674695 4.33165469 -0.9375 7.6875 C-1.31777344 8.49574219 -1.69804687 9.30398437 -2.08984375 10.13671875 C-2.39019531 10.75160156 -2.69054687 11.36648437 -3 12 C-3.33 12 -3.66 12 -4 12 C-3.91253716 10.56138706 -3.80434652 9.12402492 -3.6875 7.6875 C-3.62949219 6.88699219 -3.57148438 6.08648437 -3.51171875 5.26171875 C-2.91793306 2.63727666 -2.04219706 1.69179328 0 0 Z " fill="#787878" transform="translate(233,105)"/>
<path d="M0 0 C0 0.99 0 1.98 0 3 C-3.63 3 -7.26 3 -11 3 C-11 2.34 -11 1.68 -11 1 C-9.54182203 0.83197949 -8.0834516 0.66562857 -6.625 0.5 C-5.81289062 0.4071875 -5.00078125 0.314375 -4.1640625 0.21875 C-2 0 -2 0 0 0 Z " fill="#6E6E6E" transform="translate(142,104)"/>
<path d="M0 0 C3.39417765 3.12621626 5.6062718 5.56541027 7 10 C3.64501065 8.61172854 1.84949545 7.14414226 0 4 C0 2.68 0 1.36 0 0 Z " fill="#787878" transform="translate(195,100)"/>
<path d="M0 0 C1.39195915 4.17587745 -0.17676781 6.13474776 -2 10 C-2.66 10 -3.32 10 -4 10 C-3.71872579 8.51882199 -3.42466268 7.04006751 -3.125 5.5625 C-2.96257812 4.73878906 -2.80015625 3.91507812 -2.6328125 3.06640625 C-2.42398438 2.38449219 -2.21515625 1.70257813 -2 1 C-1.34 0.67 -0.68 0.34 0 0 Z " fill="#5D5D5D" transform="translate(235,96)"/>
<path d="M0 0 C2 1 2 1 2.8515625 3.50390625 C3.10679688 4.51324219 3.36203125 5.52257812 3.625 6.5625 C3.88539062 7.57441406 4.14578125 8.58632812 4.4140625 9.62890625 C4.60742188 10.41136719 4.80078125 11.19382812 5 12 C3.046875 11.3203125 3.046875 11.3203125 1 10 C0.390625 7.6171875 0.390625 7.6171875 0.25 4.875 C0.19328125 3.96492188 0.1365625 3.05484375 0.078125 2.1171875 C0.05234375 1.41851562 0.0265625 0.71984375 0 0 Z " fill="#6D6D6D" transform="translate(110,92)"/>
<path d="M0 0 C2.64 0 5.28 0 8 0 C7.67 1.32 7.34 2.64 7 4 C6.01 4 5.02 4 4 4 C4.33 3.34 4.66 2.68 5 2 C3.02 2 1.04 2 -1 2 C-0.67 1.34 -0.34 0.68 0 0 Z " fill="#6A6A6A" transform="translate(206,57)"/>
<path d="M0 0 C2.64752004 2.57784846 4.94432065 4.91648098 7 8 C6.67 8.99 6.34 9.98 6 11 C4 9.1875 4 9.1875 2 7 C2 6.01 2 5.02 2 4 C1.34 4 0.68 4 0 4 C0 2.68 0 1.36 0 0 Z " fill="#6B6B6B" transform="translate(174,72)"/>
<path d="M0 0 C0.33 0 0.66 0 1 0 C1.40652968 5.42039575 0.03993514 9.07015675 -2 14 C-2.97919756 10.92449216 -2.98561151 8.97555928 -2.125 5.875 C-1.94195312 5.19179688 -1.75890625 4.50859375 -1.5703125 3.8046875 C-1 2 -1 2 0 0 Z " fill="#5D5D5D" transform="translate(97,53)"/>
<path d="M0 0 C1.32 0.33 2.64 0.66 4 1 C2.35 4.63 0.7 8.26 -1 12 C-1.33 11.01 -1.66 10.02 -2 9 C-1.33333333 7.66666667 -0.66666667 6.33333333 0 5 C0.16750414 2.33290931 0.16750414 2.33290931 0 0 Z " fill="#5CAC5C" transform="translate(66,101)"/>
<path d="M0 0 C1.4606285 2.64738916 2 3.89448334 2 7 C-0.31 6.67 -2.62 6.34 -5 6 C-4.67 5.34 -4.34 4.68 -4 4 C-2.68 4 -1.36 4 0 4 C0 2.68 0 1.36 0 0 Z " fill="#595959" transform="translate(148,75)"/>
<path d="M0 0 C0.33 0 0.66 0 1 0 C2.19287411 3.87684087 3 6.91621923 3 11 C2.01 10.67 1.02 10.34 0 10 C0 6.7 0 3.4 0 0 Z " fill="#969696" transform="translate(233,65)"/>
<path d="M0 0 C0.33 0.66 0.66 1.32 1 2 C1.66 2 2.32 2 3 2 C3.33 4.31 3.66 6.62 4 9 C3.01 8.34 2.02 7.68 1 7 C0.3125 3.375 0.3125 3.375 0 0 Z " fill="#757575" transform="translate(229,58)"/>
<path d="M0 0 C-1.28519565 2.86697492 -2.57129254 4.97607712 -5 7 C-5.66 7 -6.32 7 -7 7 C-3.86206897 0 -3.86206897 0 0 0 Z " fill="#858585" transform="translate(219,132)"/>
<path d="M0 0 C3.79588866 0.54226981 5.47211993 2.20127563 8 5 C7.67 5.99 7.34 6.98 7 8 C6.401875 7.236875 5.80375 6.47375 5.1875 5.6875 C3.53040668 3.6516425 1.89702326 1.8021721 0 0 Z " fill="#666666" transform="translate(210,33)"/>
<path d="M0 0 C0.66 1.32 1.32 2.64 2 4 C2.66 4 3.32 4 4 4 C4.33 5.32 4.66 6.64 5 8 C3.0625 7.375 3.0625 7.375 1 6 C0.25 2.875 0.25 2.875 0 0 Z " fill="#626262" transform="translate(181,65)"/>
<path d="M0 0 C1.32 0.33 2.64 0.66 4 1 C4.33 2.65 4.66 4.3 5 6 C2.5 4.6875 2.5 4.6875 0 3 C0 2.01 0 1.02 0 0 Z " fill="#6C6C6C" transform="translate(162,57)"/>
<path d="" fill="#007F00" transform="translate(0,0)"/>
<path d="" fill="#007F00" transform="translate(0,0)"/>
<path d="" fill="#000000" transform="translate(0,0)"/>
<path d="" fill="#000000" transform="translate(0,0)"/>
<path d="" fill="#000000" transform="translate(0,0)"/>
<path d="" fill="#000000" transform="translate(0,0)"/>
<path d="" fill="#000000" transform="translate(0,0)"/>
<path d="" fill="#00FF00" transform="translate(0,0)"/>
<path d="" fill="#000000" transform="translate(0,0)"/>
<path d="" fill="#000000" transform="translate(0,0)"/>
<path d="" fill="#000000" transform="translate(0,0)"/>
<path d="" fill="#000000" transform="translate(0,0)"/>
<path d="" fill="#000000" transform="translate(0,0)"/>
<path d="" fill="#000000" transform="translate(0,0)"/>
<path d="" fill="#000000" transform="translate(0,0)"/>
<path d="" fill="#000000" transform="translate(0,0)"/>
<path d="" fill="#000000" transform="translate(0,0)"/>
<path d="" fill="#000000" transform="translate(0,0)"/>
<path d="" fill="#000000" transform="translate(0,0)"/>
<path d="" fill="#000000" transform="translate(0,0)"/>
<path d="" fill="#000000" transform="translate(0,0)"/>
<path d="" fill="#000000" transform="translate(0,0)"/>
<path d="" fill="#000000" transform="translate(0,0)"/>
<path d="" fill="#000000" transform="translate(0,0)"/>
<path d="" fill="#000000" transform="translate(0,0)"/>
<path d="" fill="#000000" transform="translate(0,0)"/>
<path d="" fill="#000000" transform="translate(0,0)"/>
<path d="" fill="#000000" transform="translate(0,0)"/>
<path d="" fill="#000000" transform="translate(0,0)"/>
<path d="" fill="#000000" transform="translate(0,0)"/>
<path d="" fill="#000000" transform="translate(0,0)"/>
<path d="" fill="#000000" transform="translate(0,0)"/>
<path d="" fill="#000000" transform="translate(0,0)"/>
</svg>
